# xmcd
#
# Track frame offsets:
#	150
#	20822
#	44558
#	62208
#	74587
#	87944
#	101630
#	114327
#	133000
#
# Disc length: 1932 seconds
# Revision: 0
# Processed by: cddbd v1.5.2PL0 Copyright (c) Steve Scherf et al.
# Submitted via: dBpowerAMP V12.0
#
DISCID=84078a09
DTITLE=Gregg Welty - Memoir
DYEAR=2015
DGENRE=Country
TTITLE0=Feet on the Rock
TTITLE1=Tennessee 1949
TTITLE2=Oh, Shenandoah
TTITLE3=Mr. Right
TTITLE4=Home Again
TTITLE5=Over the Rainbow
TTITLE6=Little Bit Lonesome
TTITLE7=Rebecca Lynn
TTITLE8=Saro Jane
EXTD=
EXTT0=
EXTT1=
EXTT2=
EXTT3=
EXTT4=
EXTT5=
EXTT6=
EXTT7=
EXTT8=
PLAYORDER=
